<?xml version="1.0" encoding="UTF-8"?>
<svg version="1.1" xmlns="http://www.w3.org/2000/svg" width="150" height="75">
<path d="M0 0 C49.5 0 99 0 150 0 C150 24.75 150 49.5 150 75 C100.5 75 51 75 0 75 C0 50.25 0 25.5 0 0 Z " fill="#FEFEFE" transform="translate(0,0)"/>
<path d="M0 0 C0.66 0.33 1.32 0.66 2 1 C1.99666908 1.94507416 1.99666908 1.94507416 1.99327087 2.90924072 C1.97115903 9.46276279 1.95606868 16.01627427 1.94506836 22.56982422 C1.94003751 25.01611766 1.93321216 27.46240809 1.92456055 29.90869141 C1.91244048 33.42351016 1.90675921 36.93828918 1.90234375 40.453125 C1.89718246 41.5480426 1.89202118 42.64296021 1.88670349 43.77105713 C1.88662796 44.79181335 1.88655243 45.81256958 1.88647461 46.86425781 C1.88314369 48.20994843 1.88314369 48.20994843 1.87974548 49.58282471 C1.91740109 51.98243734 1.91740109 51.98243734 2.56178284 54.16864014 C3.20784153 56.86859364 2.09650869 58.50239687 1 61 C0.63128912 62.65919896 0.28718326 64.3247643 0 66 C-1.485 65.505 -1.485 65.505 -3 65 C-3.495 62.525 -3.495 62.525 -4 60 C-5.0209375 60.495 -5.0209375 60.495 -6.0625 61 C-9.6768802 62.2304273 -12.2027047 62.47466191 -16 62 C-20.58174182 58.66782413 -22.97011223 54.50201304 -24 49 C-24.058856 43.00509552 -23.85151075 36.06847353 -19.5625 31.453125 C-15.33382194 28.1970429 -13.29800855 26.85959881 -8 26.875 C-7.113125 26.87242188 -6.22625 26.86984375 -5.3125 26.8671875 C-3 27 -3 27 -1 28 C-1.00785522 26.78098999 -1.00785522 26.78098999 -1.01586914 25.53735352 C-1.03656994 21.87907678 -1.04963803 18.22081233 -1.0625 14.5625 C-1.07087891 13.28310547 -1.07925781 12.00371094 -1.08789062 10.68554688 C-1.09111328 9.47060547 -1.09433594 8.25566406 -1.09765625 7.00390625 C-1.10551147 5.31503296 -1.10551147 5.31503296 -1.11352539 3.59204102 C-1 1 -1 1 0 0 Z " fill="#050505" transform="translate(121,5)"/>
<path d="M0 0 C0.66 0.33 1.32 0.66 2 1 C1.67 9.25 1.34 17.5 1 26 C-8.01570681 29.86387435 -8.01570681 29.86387435 -11 29 C-14.89037536 24.64805468 -17 19.86298979 -17 14 C-15.73325667 8.27086541 -14.2138298 4.18081308 -9.25 0.8125 C-6.09850408 -0.32554019 -3.32096788 -0.18449822 0 0 Z " fill="#FCFCFC" transform="translate(117,35)"/>
<path d="M0 0 C2.13162395 0.12331709 4.25769462 0.34923616 6.375 0.625 C7.53773437 0.76164062 8.70046875 0.89828125 9.8984375 1.0390625 C13 2 13 2 14.85546875 4.3984375 C18.46101734 12.59398481 16.04484396 18.85681267 13 27 C11.34233202 28.65766798 9.39653595 28.21049503 7.125 28.25 C6.24070312 28.27578125 5.35640625 28.3015625 4.4453125 28.328125 C2 28 2 28 0.36767578 26.82373047 C-1.51744727 24.31000872 -1.35777505 22.61208798 -1.328125 19.4921875 C-1.32296875 18.42355469 -1.3178125 17.35492188 -1.3125 16.25390625 C-1.291875 15.13886719 -1.27125 14.02382813 -1.25 12.875 C-1.24484375 11.75222656 -1.2396875 10.62945312 -1.234375 9.47265625 C-1.15390339 1.15390339 -1.15390339 1.15390339 0 0 Z " fill="#FDFDFD" transform="translate(23,32)"/>
<path d="M0 0 C0.66 0.33 1.32 0.66 2 1 C1.86040799 4.22946798 1.71221895 7.45848691 1.5625 10.6875 C1.50352539 12.05551758 1.50352539 12.05551758 1.44335938 13.45117188 C1.40146484 14.33740234 1.35957031 15.22363281 1.31640625 16.13671875 C1.27974854 16.94842529 1.24309082 17.76013184 1.20532227 18.59643555 C0.98962569 21.12144485 0.54100548 23.52600697 0 26 C0.80824219 26.03738281 1.61648437 26.07476563 2.44921875 26.11328125 C4.05216797 26.21189453 4.05216797 26.21189453 5.6875 26.3125 C6.74324219 26.37050781 7.79898437 26.42851562 8.88671875 26.48828125 C13.22230668 27.20090612 15.96238117 28.74003428 18.75 32.125 C22.64057864 41.07333088 20.34266514 49.10591218 17 58 C15 60 15 60 11.12109375 60.23046875 C9.55983524 60.22647576 7.99857586 60.21171261 6.4375 60.1875 C5.64408203 60.18685547 4.85066406 60.18621094 4.03320312 60.18554688 C-1.85974478 60.14025522 -1.85974478 60.14025522 -3 59 C-3.46071164 54.39021536 -3.5829927 49.75373913 -3.75 45.125 C-3.77568054 44.43670105 -3.80136108 43.7484021 -3.82781982 43.03924561 C-4.30963163 28.9745021 -3.6706823 14.85597658 -1 1 C-0.67 0.67 -0.34 0.34 0 0 Z M1 29 C-1.53727633 31.53727633 -0.23433923 38.46486756 -0.25 41.875 C-0.270625 42.99003906 -0.29125 44.10507812 -0.3125 45.25390625 C-0.31765625 46.32253906 -0.3228125 47.39117187 -0.328125 48.4921875 C-0.3374707 49.47558105 -0.34681641 50.45897461 -0.35644531 51.47216797 C-0.20175087 54.03554919 -0.20175087 54.03554919 1.36547852 55.82592773 C3.68044772 57.48876372 5.37463994 57.29709195 8.1875 57.1875 C9.08855469 57.16042969 9.98960938 57.13335937 10.91796875 57.10546875 C11.60503906 57.07066406 12.29210938 57.03585938 13 57 C16.21966587 50.26797136 19.35252589 42.91911285 16.875 35.5 C14.93100909 31.87121698 14.61701269 31.35077819 11 30 C8.4498916 29.51242094 8.4498916 29.51242094 5.8125 29.3125 C4.93207031 29.22613281 4.05164063 29.13976562 3.14453125 29.05078125 C2.43683594 29.03402344 1.72914062 29.01726563 1 29 Z " fill="#060606" transform="translate(22,3)"/>
<path d="M0 0 C1.59134766 -0.03867187 1.59134766 -0.03867187 3.21484375 -0.078125 C6.0625 0.25 6.0625 0.25 7.89453125 1.4765625 C9.33872437 3.6694176 9.59168713 5.26770952 9.8125 7.875 C9.88984375 8.67164063 9.9671875 9.46828125 10.046875 10.2890625 C10.05203125 10.93617187 10.0571875 11.58328125 10.0625 12.25 C9.7325 12.58 9.4025 12.91 9.0625 13.25 C3.83667977 13.12419322 -1.21469357 12.61140321 -5.9375 10.25 C-3.82423474 14.95842624 -3.82423474 14.95842624 0.0625 18.25 C1.25875 18.559375 2.455 18.86875 3.6875 19.1875 C5.358125 19.7134375 5.358125 19.7134375 7.0625 20.25 C7.3925 21.24 7.7225 22.23 8.0625 23.25 C6.64499437 23.13490339 5.22848831 23.00746342 3.8125 22.875 C3.02359375 22.80539063 2.2346875 22.73578125 1.421875 22.6640625 C-1.0918338 22.22291493 -2.78459892 21.6150309 -4.9375 20.25 C-7.60427396 16.17140453 -10.01336486 12.07603908 -10.9375 7.25 C-8.49936997 0.78895542 -6.62738733 0.09639836 0 0 Z " fill="#090909" transform="translate(66.9375,36.75)"/>
<path d="M0 0 C1.22589844 0.01353516 1.22589844 0.01353516 2.4765625 0.02734375 C3.41628906 0.04474609 3.41628906 0.04474609 4.375 0.0625 C5.035 2.3725 5.695 4.6825 6.375 7.0625 C4.95818366 6.75067931 3.54155349 6.43801263 2.125 6.125 C1.33609375 5.95097656 0.5471875 5.77695312 -0.265625 5.59765625 C-2.39378703 5.114944 -4.51032842 4.60086822 -6.625 4.0625 C-6.625 3.0725 -6.625 2.0825 -6.625 1.0625 C-4.21954362 -0.14022819 -2.67503047 -0.03821472 0 0 Z " fill="#F3F3F3" transform="translate(67.625,39.9375)"/>
</svg>
