<?xml version="1.0" encoding="UTF-8"?>
<svg version="1.1" xmlns="http://www.w3.org/2000/svg" width="150" height="150">
<path d="M0 0 C49.5 0 99 0 150 0 C150 49.5 150 99 150 150 C100.5 150 51 150 0 150 C0 100.5 0 51 0 0 Z " fill="#FEFEFE" transform="translate(0,0)"/>
<path d="M0 0 C0.66 0.33 1.32 0.66 2 1 C2 5.62 2 10.24 2 15 C3.0725 14.979375 4.145 14.95875 5.25 14.9375 C9 16 9 16 10.28515625 17.9296875 C11.29002731 20.26037702 12.15192182 22.60849992 13 25 C13.3609375 25.65871094 13.721875 26.31742188 14.09375 26.99609375 C16.72873104 32.82258199 14.90912896 40.86337951 14 47 C12.515 46.505 12.515 46.505 11 46 C11.06960937 44.44152344 11.06960937 44.44152344 11.140625 42.8515625 C11.40036394 34.39381336 11.11765123 27.64706657 7 20 C6.01 20 5.02 20 4 20 C3.35242375 21.43671568 2.70700547 22.87440416 2.0625 24.3125 C1.70285156 25.11300781 1.34320313 25.91351562 0.97265625 26.73828125 C-0.7762806 30.80508622 -1.25756463 34.2877182 -1.5625 38.6875 C-1.64628906 39.86699219 -1.73007812 41.04648437 -1.81640625 42.26171875 C-1.87699219 43.16535156 -1.93757813 44.06898437 -2 45 C-2.99 44.67 -3.98 44.34 -5 44 C-5.44154702 34.85834135 -4.69748513 26.00940081 -3.625 16.9375 C-3.49891357 15.8431665 -3.37282715 14.74883301 -3.24291992 13.62133789 C-3.11377197 12.57969482 -2.98462402 11.53805176 -2.8515625 10.46484375 C-2.73635254 9.532771 -2.62114258 8.60069824 -2.50244141 7.64038086 C-1.98085679 4.89940048 -1.11851873 2.54998042 0 0 Z " fill="#080808" transform="translate(47,1)"/>
<path d="M0 0 C3.91754899 -0.45552895 5.50407467 -0.38059386 8.6875 2.0625 C12.63260156 7.07384522 14.47327217 11.66761305 14.23828125 18 C13.86289258 21.15080322 13.0026361 23.99209169 12 27 C11.01 26.67 10.02 26.34 9 26 C9 25.01 9 24.02 9 23 C7.906875 23.226875 6.81375 23.45375 5.6875 23.6875 C2 24 2 24 -0.0625 23.0625 C-1.6602955 19.54734991 -0.11842333 16.59072752 1 13 C3.25 12.3125 3.25 12.3125 6 12 C8.3125 13.4375 8.3125 13.4375 10 15 C9.54917531 13.53932801 9.08906463 12.08151968 8.625 10.625 C8.36976562 9.81289063 8.11453125 9.00078125 7.8515625 8.1640625 C7.10145717 5.83540815 7.10145717 5.83540815 5 4 C3.01643517 3.28591666 1.01684563 2.61382258 -1 2 C-0.67 1.34 -0.34 0.68 0 0 Z " fill="#080808" transform="translate(76,18)"/>
<path d="M0 0 C0.99 0.66 1.98 1.32 3 2 C3.78375 1.95875 4.5675 1.9175 5.375 1.875 C9.13399443 2.05399973 10.35267649 3.35267649 13 6 C18 12.80821918 18 12.80821918 18 17 C14.34870709 15.53145801 12.71044857 13.6053903 10.4375 10.4375 C7.93265713 6.80102586 7.93265713 6.80102586 4 5 C3.80664062 5.66386719 3.61328125 6.32773437 3.4140625 7.01171875 C3.15367188 7.89472656 2.89328125 8.77773438 2.625 9.6875 C2.36976562 10.55761719 2.11453125 11.42773438 1.8515625 12.32421875 C1 15 1 15 -0.03125 17.375 C-1.24577753 20.66597783 -1.67031273 23.83739017 -2.125 27.3125 C-2.29257813 28.56675781 -2.46015625 29.82101563 -2.6328125 31.11328125 C-2.75398438 32.06589844 -2.87515625 33.01851562 -3 34 C-3.99 33.67 -4.98 33.34 -6 33 C-6.52686613 25.53606318 -5.74666481 18.69992862 -4.125 11.4375 C-3.95129883 10.65197754 -3.77759766 9.86645508 -3.59863281 9.05712891 C-2.77772978 5.56335955 -2.00833995 3.01250993 0 0 Z " fill="#070707" transform="translate(118,22)"/>
<path d="M0 0 C0.33 0.99 0.66 1.98 1 3 C0.08476563 3.20496094 -0.83046875 3.40992188 -1.7734375 3.62109375 C-3.55621094 4.02521484 -3.55621094 4.02521484 -5.375 4.4375 C-7.15003906 4.83775391 -7.15003906 4.83775391 -8.9609375 5.24609375 C-11.89494581 5.85634695 -11.89494581 5.85634695 -14 7 C-14.99 9.64 -15.98 12.28 -17 15 C-11.06 15.66 -5.12 16.32 1 17 C1.33 17.99 1.66 18.98 2 20 C-13.74487472 20.738041 -13.74487472 20.738041 -21 16 C-19.23849238 6.26976744 -19.23849238 6.26976744 -16.453125 3.4140625 C-11.27477496 0.36662642 -5.87732979 -0.17286264 0 0 Z " fill="#070707" transform="translate(32,23)"/>
<path d="M0 0 C0.66 0.33 1.32 0.66 2 1 C1.69127671 3.60466543 1.37818277 6.20867691 1.0625 8.8125 C0.97548828 9.55048828 0.88847656 10.28847656 0.79882812 11.04882812 C0.41783454 14.16733121 -0.00369374 17.01108122 -1 20 C-1.99 19.67 -2.98 19.34 -4 19 C-3.71815415 16.39442509 -3.42497289 13.79099602 -3.125 11.1875 C-3.04636719 10.44951172 -2.96773438 9.71152344 -2.88671875 8.95117188 C-2.45539714 5.28493819 -2.0803217 3.12048255 0 0 Z " fill="#0A0A0A" transform="translate(103,22)"/>
<path d="M0 0 C2.475 0.495 2.475 0.495 5 1 C5 1.99 5 2.98 5 4 C3.35 4.33 1.7 4.66 0 5 C0 3.35 0 1.7 0 0 Z " fill="#EBEBEB" transform="translate(79,34)"/>
</svg>
