<?xml version="1.0" encoding="UTF-8"?>
<svg version="1.1" xmlns="http://www.w3.org/2000/svg" width="150" height="150">
<path d="M0 0 C49.5 0 99 0 150 0 C150 49.5 150 99 150 150 C100.5 150 51 150 0 150 C0 100.5 0 51 0 0 Z " fill="#FEFEFE" transform="translate(0,0)"/>
<path d="M0 0 C1.77444057 0.59348861 3.54445553 1.20022001 5.3125 1.8125 C6.29863281 2.14894531 7.28476563 2.48539063 8.30078125 2.83203125 C10.89014992 3.95246719 12.33103656 4.7477656 14 7 C13.73904456 9.67479327 13.1995243 11.60095141 12 14 C14.64 13.67 17.28 13.34 20 13 C20.33 13.99 20.66 14.98 21 16 C17.04 16.495 17.04 16.495 13 17 C13.33 17.66 13.66 18.32 14 19 C14.1228777 20.93460941 14.17554888 22.87402904 14.1875 24.8125 C14.20167969 25.85019531 14.21585938 26.88789062 14.23046875 27.95703125 C13.99714427 31.03770533 13.30118886 33.21761592 12 36 C5.375 37.25 5.375 37.25 2 35 C1.7017345 30.45145106 1.89037801 26.43848796 3 22 C1.35 22.33 -0.3 22.66 -2 23 C-4.98078179 18.00420971 -4.63238966 12.64003336 -4 7 C-2.94497413 4.25234568 -1.74739064 2.40266213 0 0 Z " fill="#0D0D0D" transform="translate(89,30)"/>
<path d="M0 0 C0.66 0.33 1.32 0.66 2 1 C1.4685066 13.79249621 -0.13911332 26.33966845 -2 39 C-3.32 39 -4.64 39 -6 39 C-6 38.34 -6 37.68 -6 37 C-6.70125 36.9175 -7.4025 36.835 -8.125 36.75 C-11.8808612 35.77021012 -14.11236962 34.6190136 -17 32 C-17.6822195 29.05755763 -17.39201841 27.08714497 -17 24 C-16.01 22.515 -16.01 22.515 -15 21 C-9.56345178 20.4822335 -9.56345178 20.4822335 -7 21 C-5.96925083 21.96827483 -4.96492543 22.96611465 -4 24 C-3.91435791 23.30849854 -3.82871582 22.61699707 -3.74047852 21.90454102 C-3.35223699 18.78995789 -2.95745795 15.67623823 -2.5625 12.5625 C-2.36043945 10.92958008 -2.36043945 10.92958008 -2.15429688 9.26367188 C-2.02216797 8.22919922 -1.89003906 7.19472656 -1.75390625 6.12890625 C-1.63345947 5.17056885 -1.5130127 4.21223145 -1.38891602 3.22485352 C-1 1 -1 1 0 0 Z " fill="#060606" transform="translate(24,7)"/>
<path d="M0 0 C1.82421875 0.078125 1.82421875 0.078125 4 1 C5.51953125 3.984375 5.51953125 3.984375 6.8125 7.75 C7.25207031 8.98234375 7.69164063 10.2146875 8.14453125 11.484375 C8.9826074 14.92852355 9.12591035 16.68814667 8 20 C6.4375 21.8125 6.4375 21.8125 5 23 C4.01 22.67 3.02 22.34 2 22 C2.375 20.0625 2.375 20.0625 3 18 C3.66 17.67 4.32 17.34 5 17 C4.52269162 15.5410574 4.04308958 14.08286504 3.5625 12.625 C3.29566406 11.81289063 3.02882813 11.00078125 2.75390625 10.1640625 C2.04820271 7.98968201 2.04820271 7.98968201 1 6 C0.01 6.33 -0.98 6.66 -2 7 C-2.92222383 9.42927491 -2.92222383 9.42927491 -3.5 12.3125 C-4.38980578 16.27955076 -5.34282721 18.89258404 -8 22 C-11 21 -11 21 -13 18 C-12.87908691 11.83343221 -10.43717151 7.88306654 -7 3 C-5.35 3.33 -3.7 3.66 -2 4 C-1.34 2.68 -0.68 1.36 0 0 Z " fill="#0B0B0B" transform="translate(45,29)"/>
<path d="M0 0 C0.99 0 1.98 0 3 0 C6.04157942 5.22771463 7.50610724 8.92671312 7 15 C2.545 15.495 2.545 15.495 -2 16 C-1.34 16.61875 -0.68 17.2375 0 17.875 C2 20 2 20 2 22 C3.98 22.66 5.96 23.32 8 24 C8 24.66 8 25.32 8 26 C1.59548023 25.63050847 1.59548023 25.63050847 -1.125 22.75 C-1.74375 21.8425 -2.3625 20.935 -3 20 C-3.886875 19.175 -4.77375 18.35 -5.6875 17.5 C-8.22228175 14.7596954 -8.79118763 13.66520652 -9 10 C-7.63671875 7.83203125 -7.63671875 7.83203125 -5.6875 5.8125 C-5.05199219 5.13832031 -4.41648437 4.46414062 -3.76171875 3.76953125 C-2.50928982 2.51154831 -1.25520901 1.25520901 0 0 Z " fill="#101010" transform="translate(56,65)"/>
<path d="M0 0 C0 0.66 0 1.32 0 2 C-1.32 2.33 -2.64 2.66 -4 3 C-3.71869085 9.32945578 -2.58253682 12.68397762 1 18 C1 20.31 1 22.62 1 25 C-4.61 24.67 -10.22 24.34 -16 24 C-16 23.01 -16 22.02 -16 21 C-11.38 21 -6.76 21 -2 21 C-2.928125 19.576875 -3.85625 18.15375 -4.8125 16.6875 C-5.33457031 15.88699219 -5.85664062 15.08648437 -6.39453125 14.26171875 C-7.89823175 11.99791064 -7.89823175 11.99791064 -9.7109375 10.33984375 C-10.13632812 9.89769531 -10.56171875 9.45554687 -11 9 C-10.8125 6.875 -10.8125 6.875 -10 5 C-9.34 4.67 -8.68 4.34 -8 4 C-7.690625 3.34 -7.38125 2.68 -7.0625 2 C-5.24114001 -1.42844234 -3.44339345 -1.14779782 0 0 Z " fill="#060606" transform="translate(43,69)"/>
<path d="M0 0 C0.66 0.33 1.32 0.66 2 1 C1.67 2.98 1.34 4.96 1 7 C2.65 7 4.3 7 6 7 C6.33 7.99 6.66 8.98 7 10 C5.02 10.33 3.04 10.66 1 11 C0.01 19.25 -0.98 27.5 -2 36 C-2.99 35.67 -3.98 35.34 -5 35 C-5.36011137 26.49737031 -4.2527717 18.38909618 -3 10 C-4.98 9.34 -6.96 8.68 -9 8 C-8.67 7.34 -8.34 6.68 -8 6 C-5.03 6.495 -5.03 6.495 -2 7 C-1.855625 6.030625 -1.71125 5.06125 -1.5625 4.0625 C-1 1 -1 1 0 0 Z " fill="#080808" transform="translate(77,59)"/>
<path d="M0 0 C1.640625 1.16796875 1.640625 1.16796875 3 3 C3.29296875 5.69921875 3.29296875 5.69921875 3.1875 8.6875 C3.16042969 9.68136719 3.13335937 10.67523438 3.10546875 11.69921875 C3.07066406 12.45847656 3.03585938 13.21773437 3 14 C2.01 13.67 1.02 13.34 0 13 C-0.33 10.03 -0.66 7.06 -1 4 C-1.99 3.67 -2.98 3.34 -4 3 C-4.06058594 3.75925781 -4.12117188 4.51851562 -4.18359375 5.30078125 C-4.26738281 6.29464844 -4.35117188 7.28851563 -4.4375 8.3125 C-4.51871094 9.29863281 -4.59992188 10.28476562 -4.68359375 11.30078125 C-5 14 -5 14 -6 17 C-6.99 16.67 -7.98 16.34 -9 16 C-9.1080023 13.89695523 -9.18558987 11.79233091 -9.25 9.6875 C-9.31960937 7.92986328 -9.31960937 7.92986328 -9.390625 6.13671875 C-9 3 -9 3 -7.14453125 1.10546875 C-4.49745758 -0.25905192 -2.93986815 -0.45228741 0 0 Z " fill="#060606" transform="translate(74,33)"/>
<path d="M0 0 C2.5 2.25 2.5 2.25 5 5 C5 9 5 9 3.6875 10.484375 C2.125 11.65625 0.5625 12.828125 -1 14 C-2.65653686 12.34346314 -2.17106165 10.39349204 -2.1875 8.125 C-2.20167969 7.24070312 -2.21585937 6.35640625 -2.23046875 5.4453125 C-2 3 -2 3 0 0 Z " fill="#F4F4F4" transform="translate(90,35)"/>
<path d="M0 0 C1.2065625 0.0309375 1.2065625 0.0309375 2.4375 0.0625 C4.47185531 3.79215139 5.4375 5.73155042 5.4375 10.0625 C2.09376525 9.50521087 -0.59562999 8.71076111 -3.5625 7.0625 C-3.60504356 5.06295254 -3.60330783 3.06208364 -3.5625 1.0625 C-2.5625 0.0625 -2.5625 0.0625 0 0 Z " fill="#F0F0F0" transform="translate(13.5625,30.9375)"/>
<path d="M0 0 C0.66 0.33 1.32 0.66 2 1 C2.02708567 2.60407328 2.04643483 4.2082785 2.0625 5.8125 C2.07410156 6.70582031 2.08570312 7.59914063 2.09765625 8.51953125 C2 11 2 11 1 14 C-0.65 14 -2.3 14 -4 14 C-3.66009167 8.62007164 -3.31442207 4.46726453 0 0 Z " fill="#FAFAFA" transform="translate(98,49)"/>
<path d="M0 0 C0.66 0.33 1.32 0.66 2 1 C1.67 6.61 1.34 12.22 1 18 C0.01 17.67 -0.98 17.34 -2 17 C-2.3690205 5.47835991 -2.3690205 5.47835991 0 0 Z " fill="#060606" transform="translate(59,34)"/>
<path d="M0 0 C0.66 0.33 1.32 0.66 2 1 C1.34 6.28 0.68 11.56 0 17 C-0.99 16.67 -1.98 16.34 -3 16 C-2.88544319 14.08268082 -2.75793742 12.1661325 -2.625 10.25 C-2.55539063 9.18265625 -2.48578125 8.1153125 -2.4140625 7.015625 C-2.0271777 4.19793568 -1.44313834 2.4169634 0 0 Z " fill="#080808" transform="translate(28,33)"/>
<path d="M0 0 C1.9375 0.6875 1.9375 0.6875 4 2 C4.75 4.625 4.75 4.625 5 7 C1.7 7 -1.6 7 -5 7 C-3.35 4.69 -1.7 2.38 0 0 Z " fill="#F6F6F6" transform="translate(55,70)"/>
</svg>
