<?xml version="1.0" encoding="UTF-8"?>
<svg version="1.1" xmlns="http://www.w3.org/2000/svg" width="150" height="150">
<path d="M0 0 C49.5 0 99 0 150 0 C150 49.5 150 99 150 150 C100.5 150 51 150 0 150 C0 100.5 0 51 0 0 Z " fill="#FEFEFE" transform="translate(0,0)"/>
<path d="M0 0 C3.14807305 2.31214405 4.54958398 5.54630475 6.26171875 8.9609375 C6.61685547 9.64220703 6.97199219 10.32347656 7.33789062 11.02539062 C10.71614515 17.57035812 12.36734932 23.15464586 11.07421875 30.5234375 C8.73597131 34.03692972 5.8494433 36.63582522 2.07421875 38.5234375 C-0.25876785 38.56366141 -2.59284791 38.56663997 -4.92578125 38.5234375 C-5.88958507 36.33820934 -6.84687564 34.15048364 -7.80078125 31.9609375 C-8.20490234 31.04731445 -8.20490234 31.04731445 -8.6171875 30.11523438 C-11.96864567 22.39053201 -14.30545045 15.7007135 -11.171875 7.56640625 C-9.53951072 4.32216762 -7.9153721 2.51628121 -4.92578125 0.4609375 C-1.92578125 -0.4765625 -1.92578125 -0.4765625 0 0 Z " fill="#FCFCFC" transform="translate(49.92578125,44.4765625)"/>
<path d="M0 0 C0.99 0.33 1.98 0.66 3 1 C3.84375 3.4765625 3.84375 3.4765625 4.5 6.625 C5.58245563 11.38668305 6.97426498 15.54338295 9 20 C9.63652574 21.7249572 10.26034874 23.45462776 10.875 25.1875 C12.69267336 30.26300331 14.72898668 35.22085106 16.8515625 40.17578125 C18.93834238 45.30755627 20.26580746 49.41804341 20 55 C18.68 54.67 17.36 54.34 16 54 C15.938125 53.0925 15.87625 52.185 15.8125 51.25 C14.99598808 45.56940991 12.80479121 39.98209543 10 35 C6.91259527 32.76756889 3.46483842 32.4403015 -0.25 31.875 C-1.32765625 31.70742188 -2.4053125 31.53984375 -3.515625 31.3671875 C-4.33546875 31.24601562 -5.1553125 31.12484375 -6 31 C-6.12846313 31.93851807 -6.12846313 31.93851807 -6.25952148 32.89599609 C-6.64853518 35.72284647 -7.0429495 38.54891732 -7.4375 41.375 C-7.57220703 42.35984375 -7.70691406 43.3446875 -7.84570312 44.359375 C-8.04389648 45.77089844 -8.04389648 45.77089844 -8.24609375 47.2109375 C-8.36654053 48.08024902 -8.4869873 48.94956055 -8.61108398 49.84521484 C-9 52 -9 52 -10 54 C-10.99 53.67 -11.98 53.34 -13 53 C-13.84203036 39.40276905 -11.54620962 25.38720751 -7.0625 12.5625 C-6.70164307 11.52585205 -6.70164307 11.52585205 -6.33349609 10.46826172 C-4.80025809 6.37521827 -2.90547264 3.25689049 0 0 Z " fill="#070707" transform="translate(116,32)"/>
<path d="M0 0 C3.91338835 0.0954485 6.46180516 0.97523114 9.375 3.5 C16.47805648 11.23867675 21.39945964 22.14442208 21.9375 32.625 C21.65964602 37.27371081 20.93355365 39.87909813 17.6875 43.25 C12.95220702 47.10176871 9.57179803 48.71016797 3.4375 48.55859375 C0.48326659 47.88158193 -0.233582 47.19579188 -1.875 44.6875 C-6.16268692 36.15773986 -10.83854965 25.61478042 -8.50390625 15.9453125 C-6.89603856 11.13079344 -4.65963506 8.56332887 -1 5 C-0.12761142 2.32209104 -0.12761142 2.32209104 0 0 Z M-1 9 C-4.45575799 13.76334209 -6.02991504 18.02031547 -6 24 C-5.36370628 27.04538859 -4.32481931 29.85920645 -3.1875 32.75 C-2.91357422 33.49121094 -2.63964844 34.23242188 -2.35742188 34.99609375 C-1.073866 38.42506557 0.25868861 41.77220328 2 45 C5.88964572 45.56724 7.9093145 45.75153241 11.2109375 43.4765625 C13.20979842 41.70861692 15.12936353 39.90257416 17 38 C17.33 37.67 17.66 37.34 18 37 C19.98851601 26.99591943 15.1943043 17.34297525 10 9 C8.57284058 7.27347112 8.57284058 7.27347112 7 6 C3.71357137 6 1.77153036 7.28165118 -1 9 Z " fill="#0E0E0E" transform="translate(43,38)"/>
<path d="M0 0 C0.66 0.33 1.32 0.66 2 1 C0.60354856 5.18935432 -2.43254362 6.67607281 -5.9375 9.0625 C-10.68620958 12.26031272 -10.68620958 12.26031272 -15 16 C-11.76234551 24.46902253 -7.58313255 28.27564131 0 33 C0.66 33.66 1.32 34.32 2 35 C1.8712177 40.40885674 -0.58268769 44.91027853 -4 49 C-7.12934237 50.92292271 -9.33919765 51.20337791 -13 51 C-13 50.01 -13 49.02 -13 48 C-11.39125 47.505 -11.39125 47.505 -9.75 47 C-5.67501805 45.2772434 -4.36238999 42.83605611 -2.53125 38.9375 C-1.75474711 36.80936731 -1.75474711 36.80936731 -3 34 C-3.86625 33.773125 -4.7325 33.54625 -5.625 33.3125 C-11.48120146 31.03508832 -15.30988546 25.91383438 -18 20.3125 C-19.06442662 16.78658682 -19.17293234 15.4269083 -18 12 C-15.99609375 10.41015625 -15.99609375 10.41015625 -13.4375 9.0625 C-8.62534965 6.39677643 -4.3166005 3.40022721 0 0 Z " fill="#111111" transform="translate(19,39)"/>
<path d="M0 0 C2.53541298 0.09086451 5.03554784 0.2370945 7.5625 0.4375 C8.62887695 0.51581055 8.62887695 0.51581055 9.71679688 0.59570312 C11.47821999 0.72574107 13.23916173 0.86226897 15 1 C15.33 1.99 15.66 2.98 16 4 C11.38 4 6.76 4 2 4 C2.495 5.918125 2.99 7.83625 3.5 9.8125 C4.32773835 13.01998611 5 15.68455701 5 19 C7.31 19 9.62 19 12 19 C12.33 19.99 12.66 20.98 13 22 C10.69 22 8.38 22 6 22 C6.12117188 22.55985596 6.24234375 23.11971191 6.3671875 23.6965332 C6.91463176 26.23451635 7.4573656 28.77348433 8 31.3125 C8.19078125 32.19357422 8.3815625 33.07464844 8.578125 33.98242188 C8.75859375 34.82998047 8.9390625 35.67753906 9.125 36.55078125 C9.29257813 37.33106689 9.46015625 38.11135254 9.6328125 38.9152832 C10 41 10 41 10 44 C8.08837891 43.33862305 8.08837891 43.33862305 6 42 C5.11865234 39.58911133 5.11865234 39.58911133 4.5859375 36.58203125 C4.38226563 35.49212891 4.17859375 34.40222656 3.96875 33.27929688 C3.7728125 32.13525391 3.576875 30.99121094 3.375 29.8125 C2.96864683 27.56855607 2.55985577 25.32505204 2.1484375 23.08203125 C1.95709229 22.02209961 1.76574707 20.96216797 1.56860352 19.87011719 C1.10392459 17.52457599 0.55961002 15.2877411 -0.13671875 13.00390625 C-0.93895905 10.21240041 -1.24241442 8.01050333 -1.1875 5.125 C-1.18105469 4.36445312 -1.17460938 3.60390625 -1.16796875 2.8203125 C-1 1 -1 1 0 0 Z " fill="#070707" transform="translate(67,36)"/>
<path d="M0 0 C0.66 0 1.32 0 2 0 C4.66666667 8 7.33333333 16 10 24 C8.06115111 23.71743908 6.12394039 23.4236207 4.1875 23.125 C3.10855469 22.96257813 2.02960938 22.80015625 0.91796875 22.6328125 C-2 22 -2 22 -5 20 C-4.70351562 19.16210938 -4.40703125 18.32421875 -4.1015625 17.4609375 C-2.95907806 13.87142964 -2.14030053 10.31235711 -1.375 6.625 C-1.11460938 5.37976562 -0.85421875 4.13453125 -0.5859375 2.8515625 C-0.29589844 1.44003906 -0.29589844 1.44003906 0 0 Z " fill="#F9F9F9" transform="translate(115,38)"/>
</svg>
