<?xml version="1.0" encoding="UTF-8"?>
<svg version="1.1" xmlns="http://www.w3.org/2000/svg" width="150" height="150">
<path d="M0 0 C49.5 0 99 0 150 0 C150 49.5 150 99 150 150 C100.5 150 51 150 0 150 C0 100.5 0 51 0 0 Z " fill="#FEFEFE" transform="translate(0,0)"/>
<path d="M0 0 C11.11856481 -0.36520833 21.96485916 0.76776094 33 2 C33.495 3.485 33.495 3.485 34 5 C27.4 5 20.8 5 14 5 C14.66 6.65 15.32 8.3 16 10 C16.31884766 12.40356445 16.31884766 12.40356445 16.4140625 14.86328125 C16.45273437 15.74951172 16.49140625 16.63574219 16.53125 17.54882812 C16.5621875 18.46083984 16.593125 19.37285156 16.625 20.3125 C16.66367187 21.24384766 16.70234375 22.17519531 16.7421875 23.13476562 C16.83606313 25.42298407 16.92174509 27.71120295 17 30 C17.99 29.01 18.98 28.02 20 27 C20.969375 27.33 21.93875 27.66 22.9375 28 C25.62149574 29.05173363 25.62149574 29.05173363 27 29 C26.05066101 25.64566891 25.10251165 22.30753495 24 19 C25.32 19 26.64 19 28 19 C30.14817228 22.22225841 30.53650101 24.15896286 31.125 27.9375 C31.37636719 29.49791016 31.37636719 29.49791016 31.6328125 31.08984375 C32.23934886 35.89696705 31.73214068 40.24108557 31 45 C29.68 44.67 28.36 44.34 27 44 C27 42.02 27 40.04 27 38 C26.443125 38.33 25.88625 38.66 25.3125 39 C22.69715478 40.1309601 20.8193354 40.15662974 18 40 C17.67 39.34 17.34 38.68 17 38 C16.67 38.99 16.34 39.98 16 41 C14.515 40.505 14.515 40.505 13 40 C12.98018066 39.14768799 12.96036133 38.29537598 12.93994141 37.41723633 C12.86160496 34.23941676 12.77490335 31.06196418 12.68261719 27.88452148 C12.64445712 26.51221419 12.60958204 25.13981129 12.578125 23.76733398 C12.53219318 21.7886771 12.47326363 19.81033558 12.4140625 17.83203125 C12.3826416 16.64327393 12.3512207 15.4545166 12.31884766 14.22973633 C12.00807776 11.08182289 11.24052585 8.87870398 10 6 C10 5.01 10 4.02 10 3 C6.7 3 3.4 3 0 3 C0 2.01 0 1.02 0 0 Z " fill="#050505" transform="translate(5,20)"/>
<path d="M0 0 C0.66 0.33 1.32 0.66 2 1 C1.34 6.94 0.68 12.88 0 19 C1.65 18.34 3.3 17.68 5 17 C7.1875 17.1875 7.1875 17.1875 9 18 C11.59218598 21.88827898 11.10215584 23.924736 10.54296875 28.41796875 C9.71849161 32.3386838 8.39828446 34.77944658 6 38 C3.875 39 3.875 39 2 39 C1.34 38.67 0.68 38.34 0 38 C-0.66 39.98 -1.32 41.96 -2 44 C-2.99 43.67 -3.98 43.34 -5 43 C-6.15243755 39.54268736 -6.16824837 36.76740787 -6.1875 33.125 C-6.20167969 31.91070312 -6.21585938 30.69640625 -6.23046875 29.4453125 C-6 26 -6 26 -5.05078125 23.66015625 C-3.17385415 18.90853041 -3.19526942 13.74432751 -2.7890625 8.68554688 C-2.71429688 7.85732422 -2.63953125 7.02910156 -2.5625 6.17578125 C-2.50191406 5.42208252 -2.44132812 4.66838379 -2.37890625 3.8918457 C-2 2 -2 2 0 0 Z " fill="#070707" transform="translate(50,28)"/>
<path d="M0 0 C2.875 1.0625 2.875 1.0625 4.75 3.125 C6.23447778 7.00113643 6.08526069 9.9273731 5.875 14.0625 C4.43708484 13.92081863 2.9996763 13.77398957 1.5625 13.625 C0.76199219 13.54378906 -0.03851563 13.46257813 -0.86328125 13.37890625 C-3.125 13.0625 -3.125 13.0625 -6.125 12.0625 C-6.31534187 16.82104677 -6.43678507 20.82422737 -4.125 25.0625 C0.70633197 28.03296009 6.33770606 28.56809876 11.875 29.0625 C12.205 30.0525 12.535 31.0425 12.875 32.0625 C5.06984837 32.49434241 -1.40795721 32.20769005 -7.5625 27 C-9.77011594 22.84968203 -10.16636612 18.73687114 -10.125 14.0625 C-9.795 13.4025 -9.465 12.7425 -9.125 12.0625 C-11.105 12.3925 -13.085 12.7225 -15.125 13.0625 C-15.125 10.0625 -15.125 10.0625 -14.125 9.0625 C-12.12541636 9.02169217 -10.12454746 9.01995644 -8.125 9.0625 C-8.228125 8.32 -8.33125 7.5775 -8.4375 6.8125 C-8.125 4.0625 -8.125 4.0625 -6 1.6875 C-3.125 0.0625 -3.125 0.0625 0 0 Z " fill="#090909" transform="translate(95.125,45.9375)"/>
<path d="M0 0 C0.66 0.33 1.32 0.66 2 1 C1.88416889 2.54238266 1.75683428 4.08390272 1.625 5.625 C1.55539063 6.48351562 1.48578125 7.34203125 1.4140625 8.2265625 C1 11 1 11 0.0234375 13.875 C-1.12784905 17.39037878 -1.5759749 20.70263975 -2 24.375 C-2.95602064 32.28920488 -2.95602064 32.28920488 -4.0625 36.125 C-5.41009557 41.69506171 -5.66928065 47.29073971 -6 53 C-6.99 52.67 -7.98 52.34 -9 52 C-9.63297553 43.82406603 -8.53145722 36.16398005 -7.125 28.125 C-6.95129883 27.12654053 -6.77759766 26.12808105 -6.59863281 25.09936523 C-5.7141922 20.23780282 -4.65256717 15.66729222 -3 11 C-2.61490995 9.23563315 -2.25841364 7.46466042 -1.9375 5.6875 C-1.10948905 1.10948905 -1.10948905 1.10948905 0 0 Z " fill="#131313" transform="translate(75,23)"/>
<path d="M0 0 C-0.28317926 1.60568666 -0.57687791 3.20952047 -0.875 4.8125 C-1.03742187 5.70582031 -1.19984375 6.59914063 -1.3671875 7.51953125 C-2 10 -2 10 -4 13 C-4.99 13 -5.98 13 -7 13 C-8.32229189 10.35541621 -8.09677194 8.32238699 -8.0625 5.375 C-8.05347656 4.37210938 -8.04445312 3.36921875 -8.03515625 2.3359375 C-8.02355469 1.56507812 -8.01195312 0.79421875 -8 0 C-4.94736336 -0.98120464 -3.05263664 -0.98120464 0 0 Z " fill="#F5F5F5" transform="translate(58,50)"/>
<path d="M0 0 C-0.33 6.6 -0.66 13.2 -1 20 C-1.99 19.67 -2.98 19.34 -4 19 C-4.19760479 5.43113772 -4.19760479 5.43113772 -3 1 C-1 0 -1 0 0 0 Z " fill="#070707" transform="translate(70,56)"/>
<path d="M0 0 C2 1.75 2 1.75 4 4 C4 5.32 4 6.64 4 8 C1.36 7.34 -1.28 6.68 -4 6 C-3.67 4.35 -3.34 2.7 -3 1 C-2.01 0.67 -1.02 0.34 0 0 Z " fill="#FBFBFB" transform="translate(94,49)"/>
<path d="M0 0 C0.66 0.33 1.32 0.66 2 1 C1.88557539 2.60495567 1.75805306 4.20898119 1.625 5.8125 C1.55539063 6.70582031 1.48578125 7.59914063 1.4140625 8.51953125 C1 11 1 11 -1 14 C-1.66 14 -2.32 14 -3 14 C-2.69249629 11.85344499 -2.3788634 9.70776715 -2.0625 7.5625 C-1.88847656 6.36753906 -1.71445313 5.17257813 -1.53515625 3.94140625 C-1 1 -1 1 0 0 Z " fill="#0B0B0B" transform="translate(75,23)"/>
<path d="M0 0 C1.67542976 0.28604898 3.34385343 0.61781233 5 1 C5.33 1.99 5.66 2.98 6 4 C4.02 4.66 2.04 5.32 0 6 C-0.38218767 4.34385343 -0.71395102 2.67542976 -1 1 C-0.67 0.67 -0.34 0.34 0 0 Z " fill="#EBEBEB" transform="translate(25,51)"/>
</svg>
